<?xml version="1.0" encoding="utf-8"?>
<!-- Generator: Adobe Illustrator 27.8.1, SVG Export Plug-In . SVG Version: 6.00 Build 0)  -->
<svg version="1.1" id="Layer_1" xmlns="http://www.w3.org/2000/svg" xmlns:xlink="http://www.w3.org/1999/xlink" x="0px" y="0px"
	 width="672.7px" height="135.1px" viewBox="0 0 672.7 135.1" style="enable-background:new 0 0 672.7 135.1;" xml:space="preserve"
	>
<style type="text/css">
	.st0{fill:#1B1B53;}
	.st1{fill:none;}
	.st2{fill:#FF4A04;}
	.st3{fill:#77B6EA;}
	.st4{fill:#FFFFFF;}
	.st5{fill:#FF0000;}
	.st6{fill:#1B1B56;}
</style>
<g>
	<g>
		<path class="st0" d="M110.7,37.2v61.3c0,4.2,0,8.4,0,12.7c0,0.7,0,1.4,0,2.1v1.3l0,0c0,5.7,0,11.3,0,17c0,2.6,0.7,3.4,3.8,3.3
			c3.1-0.1,6.1-0.2,9-1.4c2.5-1.1,4.5-2.4,6.2-4.1c0.6-0.6,2.1-2.1,3.4-4.5c0.6-1.1,1.8-3.5,2.5-9.2c0.9-6.7,0-8.3,1.5-13.2
			c0.6-1.8,1.3-3.6,2.8-5.2c1.1-1.1,2.4-2.1,4-2.8c2.8-1.2,5.8-2.1,8.8-2.8c1.5-0.4,1.8-1.1,1.8-2.2c0.1-2.3-1.5-4.1-2.3-6
			c-1.7-4.4-3.9-8.6-5.8-12.9c-2.4-5.5-4.7-11-7.1-16.4c-2.5-5.6-5.2-11.1-7.5-16.7c-0.7-1.7-1.6-3.4-2.3-5.1
			c-0.9-2.4-2.2-4.8-3.7-7.1c-2.5-3.9-5.6-7.5-9.2-10.6c-2.8-2.5-5.8-4.7-9.2-6.6c-5.5-3-11.5-5.2-17.9-6.5c-3.9-0.8-7.9-1-11.8-1
			c-3.9,0-7.9,0.2-11.8,1C59.4,2.7,53.5,4.9,48,7.9c-3.3,1.8-6.3,4.1-9.2,6.6c-3.7,3.2-6.7,6.8-9.2,10.6c-1.5,2.2-2.8,4.6-3.7,7.1
			c-0.6,1.8-1.5,3.4-2.3,5.1c-2.4,5.6-5.1,11.1-7.5,16.7c-2.4,5.5-4.7,11-7.1,16.4C7.1,74.7,4.8,79,3.1,83.3c-0.8,2-2.3,3.8-2.3,6
			c0.1,1.1,0.3,1.8,1.8,2.2c3,0.8,6,1.6,8.8,2.8c1.6,0.7,2.9,1.7,4,2.8c1.5,1.6,2.2,3.4,2.8,5.2c1.5,4.9,0.6,6.5,1.5,13.2
			c0.8,5.7,1.9,8.1,2.5,9.2c1.3,2.4,2.8,3.9,3.4,4.5c1.7,1.6,3.7,3,6.2,4.1c2.9,1.3,5.9,1.3,9,1.4c3.1,0.1,3.8-0.7,3.8-3.3
			c0-5.7,0-11.3,0-17l0,0v-1.3c0-0.7,0-1.4,0-2.1c0-4.2,0-8.4,0-12.7V37.2"/>
		<g>
			<path class="st1" d="M44.7,37.7h66.1v2c0.1,0.3,0.1,0.7,0,1.2c0,0,0,0.1,0,0.1v0.9c0,0,0,0,0,0.1c0.1,0.4,0.1,0.7,0,0.9v6.2h26.4
				c-1.8-3.9-3.6-7.8-5.3-11.8c0,0,0-0.1,0-0.1H23.6c0,0,0,0.1,0,0.1c-1.7,4-3.5,7.9-5.3,11.8h26.4v-6.2"/>
			<path class="st1" d="M0.9,89.4c0.1,1.1,0.3,1.8,1.8,2.2c3,0.8,6,1.6,8.8,2.8c1.6,0.7,2.9,1.7,4,2.8c0.3,0.3,0.5,0.6,0.7,0.9h28.4
				V85.9H1.9C1.3,87,0.9,88.1,0.9,89.4z"/>
			<path class="st1" d="M38.8,14.5c-3.6,3.1-6.6,6.7-9.1,10.5h96.1c-2.5-3.8-5.5-7.3-9.1-10.5c-0.7-0.6-1.4-1.2-2.1-1.8H40.9
				C40.2,13.3,39.5,13.9,38.8,14.5z"/>
			<path class="st1" d="M9,70.4c-0.5,1.1-1,2.1-1.5,3.2h37.2V61.4H12.9C11.6,64.4,10.3,67.4,9,70.4z"/>
			<path class="st1" d="M19.8,115.7c0.5,3.3,1,5.5,1.6,7h23.3c0-2.7,0-5.4,0-8.2l0,0v-1.3c0-0.7,0-1.4,0-2.1c0-0.2,0-0.5,0-0.8H19.4
				C19.4,111.8,19.5,113.5,19.8,115.7L19.8,115.7z"/>
			<path class="st1" d="M110.7,111.1c0,0.7,0,1.4,0,2.1v1.3l0,0c0,2.7,0,5.4,0,8.2h23.3c0.5-1.5,1.1-3.7,1.6-7
				c0.3-2.2,0.4-3.9,0.5-5.3h-25.3C110.8,110.6,110.8,110.9,110.7,111.1L110.7,111.1z"/>
			<path class="st1" d="M110.7,73.6h37.2c-0.5-1.1-1-2.1-1.5-3.2c-1.3-3-2.6-6-3.9-9.1h-31.8C110.7,61.4,110.7,73.6,110.7,73.6z"/>
			<path class="st1" d="M110.7,98.1h28.4c0.2-0.3,0.5-0.6,0.7-0.9c1.1-1.1,2.4-2.1,4-2.8c2.8-1.2,5.8-2.1,8.8-2.8
				c1.5-0.4,1.8-1.1,1.8-2.2c0.1-1.3-0.4-2.4-1-3.5h-42.8L110.7,98.1L110.7,98.1z"/>
			<path class="st2" d="M89.5,1.5c-3.9-0.8-7.9-1-11.8-1c-3.9,0-7.9,0.2-11.8,1C59.5,2.7,53.5,4.9,48,7.9c-2.5,1.4-4.8,3-7.1,4.8
				h73.6c-2.2-1.8-4.5-3.4-7.1-4.8C101.9,4.9,96,2.7,89.5,1.5L89.5,1.5z"/>
			<path class="st2" d="M29.5,25.1c-1.5,2.2-2.8,4.6-3.7,7.1c-0.6,1.7-1.5,3.3-2.2,5h108.1c-0.7-1.7-1.6-3.3-2.2-5
				c-0.9-2.4-2.2-4.8-3.7-7.1c0-0.1-0.1-0.1-0.1-0.2H29.7C29.6,25,29.6,25.1,29.5,25.1L29.5,25.1z"/>
			<path class="st2" d="M16.1,54c-1.1,2.5-2.1,4.9-3.2,7.4h31.8V49.1H18.3C17.5,50.7,16.8,52.4,16.1,54z"/>
			<path class="st2" d="M110.7,61.4h31.8c-1.1-2.5-2.1-4.9-3.2-7.4c-0.7-1.6-1.5-3.3-2.2-4.9h-26.4
				C110.7,49.1,110.7,61.4,110.7,61.4z"/>
			<path class="st2" d="M110.7,85.9h42.8c-0.4-0.8-0.9-1.7-1.3-2.5c-1.3-3.3-2.9-6.5-4.4-9.7h-37.2V85.9z"/>
			<path class="st2" d="M3.2,83.3c-0.3,0.9-0.8,1.7-1.3,2.5h42.8V73.6H7.5C6,76.8,4.5,80.1,3.2,83.3z"/>
			<path class="st2" d="M18.3,102.4c1,3.3,0.9,5.1,1,7.9h25.3c0-4,0-7.9,0-11.9v-0.3H16.2C17.3,99.5,17.9,101,18.3,102.4L18.3,102.4
				z"/>
			<path class="st2" d="M110.7,98.5c0,4,0,7.9,0,11.9h25.3c0.1-2.9,0-4.7,1.1-7.9c0.4-1.5,1-2.9,2.1-4.3h-28.4L110.7,98.5
				L110.7,98.5z"/>
			<path class="st2" d="M110.7,131.5c0,2.6,0.7,3.4,3.8,3.3c3.1-0.1,6.1-0.2,9-1.4c2.5-1.1,4.5-2.4,6.2-4.1c0.6-0.6,2.1-2.1,3.4-4.5
				c0.3-0.5,0.6-1.2,1-2.2h-23.3C110.7,125.6,110.7,128.5,110.7,131.5z"/>
			<path class="st2" d="M22.4,124.9c1.3,2.4,2.8,3.9,3.4,4.5c1.7,1.6,3.7,3,6.2,4.1c2.9,1.3,5.9,1.3,9,1.4c3.1,0.1,3.8-0.7,3.8-3.3
				c0-3,0-5.9,0-8.9H21.4C21.7,123.7,22.1,124.4,22.4,124.9L22.4,124.9z"/>
		</g>
		<g>
			<g>
				<path class="st3" d="M39,37.7c-5,7.4-7.9,16.3-7.9,25.9c0,25.7,20.9,46.6,46.6,46.6s46.6-20.9,46.6-46.6
					c0-9.6-2.9-18.5-7.9-25.9H39z"/>
				<path class="st0" d="M77.7,110.4c-25.9,0-47-21.1-47-47c0-9.4,2.7-18.4,7.9-26.1l0.1-0.2h77.8l0.1,0.2
					c5.2,7.7,7.9,16.8,7.9,26.1C124.7,89.4,103.6,110.4,77.7,110.4z M39.2,37.9c-5,7.6-7.7,16.4-7.7,25.5
					c0,25.5,20.7,46.2,46.2,46.2s46.2-20.7,46.2-46.2c0-9.1-2.7-18-7.7-25.5H39.2z"/>
			</g>
			<g>
				<circle class="st4" cx="56.6" cy="52.5" r="18.8"/>
				<path class="st0" d="M56.6,71.7c-10.6,0-19.2-8.6-19.2-19.2S46,33.3,56.6,33.3s19.2,8.6,19.2,19.2S67.2,71.7,56.6,71.7z
					 M56.6,34c-10.2,0-18.5,8.3-18.5,18.5s8.3,18.5,18.5,18.5S75,62.7,75,52.5S66.8,34,56.6,34z"/>
			</g>
			<g>
				<circle class="st4" cx="99.1" cy="52.6" r="18.7"/>
				<path class="st0" d="M99.1,71.7C88.6,71.7,80,63.1,80,52.6s8.6-19.1,19.1-19.1s19.1,8.6,19.1,19.1S109.6,71.7,99.1,71.7z
					 M99.1,34.2c-10.1,0-18.4,8.2-18.4,18.4S89,70.9,99.1,70.9s18.4-8.2,18.4-18.4S109.2,34.2,99.1,34.2z"/>
			</g>
			<g>
				<g>
					<circle class="st0" cx="56.6" cy="56.4" r="5.8"/>
					<path class="st0" d="M56.6,62.8c-3.5,0-6.3-2.8-6.3-6.3s2.8-6.3,6.3-6.3s6.3,2.8,6.3,6.3S60.1,62.8,56.6,62.8z M56.6,51.3
						c-2.8,0-5.2,2.3-5.2,5.2s2.3,5.2,5.2,5.2s5.2-2.3,5.2-5.2S59.4,51.3,56.6,51.3z"/>
				</g>
				<circle class="st4" cx="53.5" cy="59.5" r="1.4"/>
			</g>
			<g>
				<g>
					<circle class="st0" cx="99.1" cy="56.3" r="5.7"/>
					<path class="st0" d="M99.1,62.2c-3.2,0-5.9-2.6-5.9-5.9s2.6-5.9,5.9-5.9s5.9,2.6,5.9,5.9S102.3,62.2,99.1,62.2z M99.1,50.7
						c-3.1,0-5.6,2.5-5.6,5.6s2.5,5.6,5.6,5.6s5.6-2.5,5.6-5.6S102.2,50.7,99.1,50.7z"/>
				</g>
				<circle class="st4" cx="96.3" cy="59.5" r="1.4"/>
			</g>
			<g>
				<g>
					<path class="st4" d="M74.3,78.1L74.3,78.1c1.9,0,3.4,1.5,3.4,3.4v6.9c0,1.9-1.5,3.4-3.4,3.4h0c-1.9,0-3.4-1.5-3.4-3.4v-6.9
						C70.9,79.6,72.4,78.1,74.3,78.1z"/>
					<path class="st0" d="M74.3,92.2c-2.1,0-3.8-1.7-3.8-3.8v-6.9c0-2.1,1.7-3.8,3.8-3.8s3.8,1.7,3.8,3.8v6.9
						C78.1,90.5,76.4,92.2,74.3,92.2z M74.3,78.4c-1.7,0-3.1,1.4-3.1,3.1v6.9c0,1.7,1.4,3.1,3.1,3.1s3.1-1.4,3.1-3.1v-6.9
						C77.4,79.8,76.1,78.4,74.3,78.4z"/>
				</g>
				<g>
					<path class="st4" d="M81.2,78.1L81.2,78.1c1.9,0,3.4,1.5,3.4,3.4v6.9c0,1.9-1.5,3.4-3.4,3.4h0c-1.9,0-3.4-1.5-3.4-3.4v-6.9
						C77.8,79.6,79.3,78.1,81.2,78.1z"/>
					<path class="st0" d="M81.2,92.2c-2.1,0-3.8-1.7-3.8-3.8v-6.9c0-2.1,1.7-3.8,3.8-3.8s3.8,1.7,3.8,3.8v6.9
						C85,90.5,83.3,92.2,81.2,92.2z M81.2,78.4c-1.7,0-3.1,1.4-3.1,3.1v6.9c0,1.7,1.4,3.1,3.1,3.1s3.1-1.4,3.1-3.1v-6.9
						C84.3,79.8,82.9,78.4,81.2,78.4z"/>
				</g>
			</g>
			<path class="st0" d="M90.1,79c0,0.1,0,0.2,0,0.3c-0.2,1.5-0.9,2.7-2,3.2c-1.4,0.7-3.1,0.4-4.8-0.7c0,0,0,0-0.1,0
				c-0.2-0.1-0.3-0.3-0.5-0.4c-1.4-0.9-3.1-1.5-4.9-1.5c-1.7,0-3.3,0.5-4.6,1.3l0,0c-0.3,0.2-0.7,0.4-1,0.7c-1.6,1-3.2,1.3-4.6,0.6
				c-1.4-0.8-2.2-2.5-2.1-4.7c0.8-3.6,5.8-6.4,11.9-6.5c0.1,0,0.2,0,0.3,0c0.2,0,0.3,0,0.5,0C84.8,71.5,90,74.9,90.1,79L90.1,79z"/>
			<g>
				<ellipse class="st5" cx="77.7" cy="72.8" rx="6.5" ry="4.3"/>
				<path class="st0" d="M77.7,77.5c-3.8,0-6.9-2.1-6.9-4.7s3.1-4.7,6.9-4.7s6.9,2.1,6.9,4.7S81.5,77.5,77.7,77.5z M77.7,68.9
					c-3.4,0-6.2,1.8-6.2,3.9s2.8,3.9,6.2,3.9s6.2-1.8,6.2-3.9S81.1,68.9,77.7,68.9z"/>
			</g>
		</g>
	</g>
	<path class="st0" d="M114.1,135.1c-1.4,0-2.2-0.2-2.8-0.8c-0.6-0.6-0.8-1.4-0.8-2.9c0-4.6,0-9.1,0-13.7V111V96.3h0.7v20.9
		c0,4.7,0,9.4,0,14.1c0,1.3,0.2,2,0.6,2.4c0.5,0.4,1.3,0.6,2.8,0.6h0.4c2.9-0.1,5.7-0.2,8.5-1.4c2.4-1,4.4-2.3,6.1-4
		c0.9-0.9,2.2-2.3,3.3-4.4c0.7-1.3,1.8-3.7,2.5-9.1c0.4-2.8,0.4-4.7,0.5-6.3c0.1-2.3,0.1-4.1,1-6.9c0.5-1.7,1.2-3.6,2.9-5.3
		c1.1-1.2,2.5-2.2,4.1-2.9c2.8-1.2,5.9-2.1,8.8-2.9c1.3-0.3,1.5-0.8,1.5-1.8c0.1-1.4-0.6-2.7-1.3-4c-0.3-0.6-0.7-1.3-0.9-1.9
		c-1.1-2.7-2.3-5.4-3.6-8c-0.8-1.6-1.5-3.2-2.2-4.9c-1.2-2.7-2.3-5.4-3.4-8c-1.2-2.8-2.4-5.6-3.6-8.4c-1-2.2-2-4.5-3-6.7
		c-1.5-3.3-3.1-6.7-4.5-10c-0.3-0.7-0.6-1.4-0.9-2.1c-0.5-1-0.9-2-1.3-3c-0.8-2.2-2-4.5-3.6-7c-2.6-4-5.6-7.5-9.2-10.6
		c-3.3-2.8-6.2-4.9-9.1-6.5c-5.5-3-11.5-5.2-17.8-6.4c-3.6-0.7-7.4-1-11.8-1c-4.3-0.1-8.2,0.3-11.8,1C59.7,2.9,53.7,5,48.2,8.1
		c-3,1.6-5.9,3.7-9.1,6.5c-3.5,3.1-6.5,6.5-9.2,10.6c-1.6,2.5-2.8,4.8-3.6,7c-0.4,1-0.9,2.1-1.3,3c-0.3,0.7-0.6,1.4-1,2.1
		c-1.4,3.4-3,6.8-4.5,10c-1,2.2-2,4.4-3,6.7c-1.2,2.8-2.5,5.7-3.6,8.4c-1.1,2.6-2.3,5.3-3.4,8c-0.7,1.6-1.5,3.3-2.2,4.9
		c-1.2,2.6-2.5,5.3-3.6,8c-0.3,0.7-0.6,1.3-0.9,1.9c-0.7,1.3-1.4,2.5-1.3,4c0,1,0.3,1.5,1.5,1.8c2.9,0.8,6,1.6,8.8,2.9
		c1.6,0.7,3,1.7,4.1,2.9c1.6,1.8,2.4,3.7,2.9,5.3c0.9,2.9,0.9,4.7,1,6.9c0.1,1.7,0.1,3.5,0.5,6.3c0.7,5.4,1.8,7.8,2.5,9.1
		c1.1,2.1,2.4,3.5,3.3,4.4c1.7,1.6,3.6,2.9,6.1,4c2.7,1.2,5.5,1.3,8.5,1.4h0.4c1.5,0.1,2.4-0.1,2.8-0.5c0.4-0.4,0.6-1.1,0.6-2.4
		c0-4.6,0-9.1,0-13.7v-6.7V96.5h0.7v20.6c0,4.8,0,9.5,0,14.2c0,1.5-0.2,2.4-0.8,2.9c-0.6,0.6-1.6,0.8-3.4,0.8h-0.4
		c-3-0.1-5.8-0.2-8.7-1.5c-2.5-1.1-4.5-2.4-6.3-4.1c-0.9-0.9-2.3-2.4-3.4-4.6c-0.8-1.4-1.8-3.8-2.6-9.3c-0.4-2.8-0.5-4.7-0.5-6.4
		c-0.1-2.3-0.1-4-1-6.8c-0.5-1.6-1.2-3.4-2.7-5.1c-1.1-1.1-2.4-2.1-3.9-2.7c-2.8-1.2-5.8-2.1-8.7-2.8c-1.7-0.4-2-1.2-2.1-2.5
		c-0.1-1.6,0.7-3,1.4-4.3c0.3-0.6,0.6-1.2,0.9-1.8C4,80.3,5.2,77.6,6.5,75c0.8-1.6,1.5-3.2,2.2-4.9c1.2-2.7,2.3-5.4,3.4-8
		c1.2-2.8,2.4-5.6,3.6-8.4c1-2.2,2-4.5,3.1-6.7c1.5-3.3,3.1-6.7,4.5-10c0.3-0.7,0.6-1.4,1-2.1c0.5-1,0.9-2,1.3-3
		c0.8-2.3,2-4.6,3.7-7.1C32,20.6,35,17.1,38.6,14c3.3-2.9,6.2-5,9.2-6.6c5.6-3.1,11.7-5.2,18-6.5c3.6-0.7,7.5-1,11.9-1
		c4.4,0,8.3,0.3,11.9,1c6.3,1.2,12.4,3.4,18,6.5c3,1.7,5.9,3.8,9.2,6.6c3.6,3.1,6.6,6.6,9.3,10.7c1.7,2.5,2.9,4.9,3.7,7.1
		c0.4,1,0.9,2,1.3,3c0.3,0.7,0.7,1.4,1,2.1c1.4,3.4,3,6.8,4.5,10c1,2.2,2.1,4.5,3.1,6.7c1.2,2.8,2.5,5.7,3.6,8.4
		c1.1,2.6,2.3,5.3,3.4,8c0.7,1.6,1.5,3.3,2.2,4.9c1.2,2.6,2.5,5.3,3.6,8.1c0.2,0.6,0.6,1.2,0.9,1.8c0.7,1.3,1.4,2.7,1.4,4.3
		c-0.1,1.3-0.4,2.1-2.1,2.5c-2.9,0.8-6,1.6-8.7,2.8c-1.5,0.7-2.8,1.6-3.9,2.7c-1.5,1.7-2.2,3.5-2.7,5.1c-0.9,2.8-0.9,4.5-1,6.8
		c-0.1,1.7-0.1,3.6-0.5,6.4c-0.8,5.5-1.8,8-2.6,9.3c-1.2,2.2-2.5,3.7-3.4,4.6c-1.7,1.7-3.8,3.1-6.3,4.1c-2.9,1.2-5.7,1.3-8.7,1.5
		h-0.4C114.4,135,114.3,135,114.1,135.1L114.1,135.1z"/>
	<path class="st4" d="M76.4,16.1l0.9-3.1c0.1-0.4,0.7-0.4,0.9,0l1,3.1c0.2,0.6,0.7,1.1,1.3,1.3l3.1,1c0.4,0.1,0.4,0.7,0,0.9l-3.1,1
		c-0.6,0.2-1.1,0.7-1.3,1.3l-0.9,3.1c-0.1,0.4-0.7,0.4-0.9,0l-1-3.1c-0.2-0.6-0.7-1.1-1.3-1.3l-3.1-1c-0.4-0.1-0.4-0.7,0-0.9l3.1-1
		C75.7,17.2,76.2,16.7,76.4,16.1z"/>
</g>
<g>
	<g>
		<g>
			<path class="st6" d="M399.1,92.5l-18.9-21.9v21c0,0.8-0.6,1.4-1.4,1.4h-5.5c-0.8,0-1.4-0.6-1.4-1.4V44.4c0-0.8,0.6-1.4,1.4-1.4
				h5.5c0.8,0,1.4,0.6,1.4,1.4v21.4l19-22.3c0.3-0.3,0.6-0.5,1-0.5h6.6c1.2,0,1.8,1.4,1,2.3L388,68.1l20.1,22.7
				c0.8,0.9,0.1,2.3-1,2.3h-7C399.8,93,399.4,92.8,399.1,92.5L399.1,92.5z"/>
			<g>
				<path class="st6" d="M199.8,91.7c-2.7-1.2-4.8-2.8-6.3-5c-1.2-1.8-2-3.8-2.2-6c-0.1-0.8,0.6-1.5,1.4-1.5h6.1
					c0.6,0,1.2,0.4,1.3,1.1c0.3,1.7,1.1,3.1,2.4,4.3c1.5,1.4,3.6,2.1,6.4,2.1s5-0.7,6.6-2.1s2.4-3.1,2.4-5.3c0-1.7-0.5-3-1.5-4.1
					s-2.2-1.9-3.7-2.4c-1.5-0.6-3.5-1.2-6.1-1.9c-3.3-0.9-5.9-1.7-7.9-2.6s-3.8-2.3-5.2-4.1c-1.4-1.9-2.2-4.4-2.2-7.5
					c0-2.9,0.7-5.4,2.2-7.5c1.4-2.2,3.4-3.8,6-5s5.6-1.7,9-1.7c4.8,0,8.8,1.2,11.9,3.6c2.7,2.1,4.3,4.9,4.9,8.3
					c0.1,0.8-0.5,1.6-1.4,1.6h-6.4c-0.6,0-1.2-0.5-1.3-1c-0.3-1.4-1.1-2.6-2.4-3.7c-1.6-1.3-3.7-1.9-6.3-1.9c-2.4,0-4.3,0.6-5.8,1.8
					s-2.2,2.9-2.2,5.2c0,1.5,0.5,2.8,1.4,3.8s2.1,1.8,3.6,2.3s3.4,1.2,5.9,1.9c3.3,0.9,6,1.8,8.1,2.7s3.9,2.3,5.3,4.2
					c1.5,1.9,2.2,4.4,2.2,7.6c0,2.5-0.7,4.9-2.1,7.2c-1.4,2.2-3.4,4.1-6,5.4s-5.7,2.1-9.2,2.1C205.4,93.5,202.4,92.9,199.8,91.7
					L199.8,91.7z"/>
				<path class="st6" d="M268.1,44.4v3.9c0,0.8-0.6,1.4-1.4,1.4h-11.9v41.9c0,0.8-0.6,1.4-1.4,1.4H248c-0.8,0-1.4-0.6-1.4-1.4V49.7
					h-12c-0.8,0-1.4-0.6-1.4-1.4v-3.9c0-0.8,0.6-1.4,1.4-1.4h32.1C267.5,43,268.1,43.6,268.1,44.4L268.1,44.4z"/>
				<path class="st6" d="M349.3,92.3L338.2,73H332v18.6c0,0.8-0.6,1.4-1.4,1.4h-5.5c-0.8,0-1.4-0.6-1.4-1.4V44.4
					c0-0.8,0.6-1.4,1.4-1.4H341c3.8,0,7.1,0.7,9.8,2s4.6,3.1,6,5.4c1.3,2.2,2,4.8,2,7.5c0,3.3-1,6.2-2.8,8.9
					c-1.9,2.7-4.8,4.5-8.7,5.4l11.1,18.6c0.5,0.9-0.1,2.1-1.2,2.1h-6.6C350,93,349.6,92.7,349.3,92.3L349.3,92.3z M332,66.4h9.1
					c3.1,0,5.4-0.8,6.9-2.3c1.6-1.5,2.3-3.6,2.3-6.2s-0.8-4.6-2.3-6.1s-3.9-2.2-7-2.2h-9V66.4z"/>
				<path class="st6" d="M458.5,93h-6.1c-0.5,0-0.9-0.2-1.1-0.6L427,55.6v36c0,0.8-0.6,1.4-1.4,1.4h-5.5c-0.8,0-1.4-0.6-1.4-1.4
					V44.3c0-0.8,0.6-1.4,1.4-1.4h6.1c0.5,0,0.9,0.2,1.1,0.6l24.3,36.6V44.3c0-0.8,0.6-1.4,1.4-1.4h5.5c0.8,0,1.4,0.6,1.4,1.4v47.3
					C459.9,92.4,459.3,93,458.5,93L458.5,93z"/>
				<path class="st6" d="M480.3,49.6v14.7h15.9c0.8,0,1.4,0.6,1.4,1.4v3.9c0,0.8-0.6,1.4-1.4,1.4h-15.9v15.3h18
					c0.8,0,1.4,0.6,1.4,1.4v3.9c0,0.8-0.6,1.4-1.4,1.4h-24.9c-0.8,0-1.4-0.6-1.4-1.4V44.3c0-0.8,0.6-1.4,1.4-1.4h24.9
					c0.8,0,1.4,0.6,1.4,1.4v3.9c0,0.8-0.6,1.4-1.4,1.4L480.3,49.6L480.3,49.6z"/>
				<path class="st6" d="M543.4,44.4v3.9c0,0.8-0.6,1.4-1.4,1.4h-11.9v41.9c0,0.8-0.6,1.4-1.4,1.4h-5.5c-0.8,0-1.4-0.6-1.4-1.4V49.7
					h-12c-0.8,0-1.4-0.6-1.4-1.4v-3.9c0-0.8,0.6-1.4,1.4-1.4H542C542.8,43,543.4,43.6,543.4,44.4L543.4,44.4z"/>
				<path class="st6" d="M551.3,92c-1-1-1.5-2.2-1.5-3.7s0.5-2.7,1.5-3.7s2.2-1.5,3.7-1.5s2.7,0.5,3.7,1.5s1.5,2.2,1.5,3.7
					s-0.5,2.7-1.5,3.7s-2.2,1.5-3.7,1.5S552.3,93,551.3,92z"/>
				<path class="st6" d="M662.6,44.2c3.3,1.8,5.8,4.3,7.5,7.5s2.6,7,2.6,11.3c0,2-0.2,4-0.5,5.8c-0.8,4.8-2.5,9.1-5.2,12.8
					c-2.6,3.7-6,6.7-10,8.7s-8.4,3.1-13.2,3.1c-4.5,0-8.4-0.9-11.7-2.7c-3.3-1.8-5.8-4.3-7.5-7.5C622.8,80,622,76.3,622,72
					c0-1.8,0.2-3.8,0.6-6c0.8-4.8,2.5-9,5.2-12.8c2.7-3.7,6-6.6,10-8.7c4-2.1,8.4-3.1,13.2-3.1C655.4,41.6,659.3,42.4,662.6,44.2
					L662.6,44.2z M641.5,51.4c-2.8,1.5-5.1,3.5-6.9,6.3s-3.1,5.9-3.8,9.5c-0.2,1.2-0.4,2.7-0.4,4.2c0,4.5,1.3,8.1,3.8,10.6
					c2.5,2.6,6,3.8,10.4,3.8c3.2,0,6.1-0.7,8.8-2.2s5-3.6,6.9-6.3s3.2-5.9,3.8-9.5c0.2-1.2,0.4-2.7,0.4-4.3c0-4.5-1.3-8-3.8-10.5
					c-2.5-2.6-6-3.8-10.4-3.8C647.2,49.2,644.2,49.9,641.5,51.4L641.5,51.4z"/>
			</g>
		</g>
		<path class="st6" d="M614,75.9c1.1-2.6,1.9-5.6,2-8.9c0.2-0.8-0.5-1.6-1.3-1.6h-22.8c-0.7,0-1.2,0.5-1.3,1.1l-0.6,3.3
			c-0.2,0.8,0.5,1.6,1.3,1.6h17c-1.4,4.6-3.9,8.2-7.3,10.8c-3.5,2.6-7.3,3.9-11.5,3.9c-4.5,0-8.1-1.2-10.7-3.7s-3.9-5.9-3.9-10.4
			c0-1.4,0.1-2.9,0.4-4.5c0.6-3.6,1.9-6.8,3.8-9.6c2.3-3.3,5.2-5.7,8.7-7.2c2.4-1,5.1-1.5,7.8-1.4c3.2,0.1,5.9,0.9,8,2.4
			c2,1.4,3.3,3.3,4,5.5c0.2,0.6,0.7,1,1.3,1h6.1c0.9,0,1.5-0.8,1.3-1.7c-0.8-4.3-2.7-7.7-5.8-10.4c-3.5-3-8.2-4.5-14.1-4.5
			c-4.9,0-9.5,1.1-13.6,3.2s-7.6,5.2-10.4,9s-4.6,8.3-5.4,13.2c-0.3,1.9-0.5,3.8-0.5,5.7c0,4.1,0.8,7.7,2.5,10.8s4.1,5.5,7.2,7.2
			c3.1,1.7,6.9,2.6,11.2,2.6c4.6,0,8.7-0.9,12.5-2.6c2.6-1.2,4.9-2.8,7-4.6v0.1c0,0,0.1-0.1,0.4-0.3c0.1-0.1,0.2-0.2,0.3-0.3
			c0.2-0.2,0.5-0.5,0.8-0.9s0.7-0.7,1-1.1c1.7-2,3-4.1,4.1-6.5c0.1-0.3,0.3-0.6,0.4-0.8C613.8,76.3,613.9,76.1,614,75.9L614,75.9z"
			/>
	</g>
	<path class="st6" d="M315.3,91.2l-16.9-47.3c-0.2-0.5-0.7-0.9-1.3-0.9h-7.6c-0.6,0-1.1,0.4-1.3,0.9l-16.9,47.3
		c-0.3,0.9,0.3,1.8,1.3,1.8h5.6c0.6,0,1.1-0.4,1.3-0.9l1.7-4.9l3.9-11.1l0,0l5.1-14.4l0,0l0,0l2.4-6.8c0.2-0.7,1.1-0.7,1.4,0l2,5.6
		l0,0l0,0l5.5,15.7l0,0l3.5,9.9l0,0l2,6c0.2,0.6,0.7,0.9,1.3,0.9h5.7C315,93,315.7,92,315.3,91.2L315.3,91.2z"/>
</g>
</svg>
