<svg xmlns="http://www.w3.org/2000/svg" width="21" height="20.676" fill="none" overflow="visible"><path d="M 10.5 0 C 4.701 0 0 4.701 0 10.5 C 0 15.42 3.388 19.537 7.955 20.676 C 7.9 20.512 7.873 20.339 7.875 20.166 L 7.875 18.371 L 6.556 18.371 C 5.837 18.371 5.198 18.063 4.889 17.489 C 4.545 16.851 4.485 15.875 3.633 15.278 C 3.38 15.08 3.573 14.853 3.864 14.884 C 4.402 15.036 4.848 15.405 5.268 15.953 C 5.687 16.502 5.883 16.626 6.665 16.626 C 7.044 16.626 7.611 16.604 8.144 16.52 C 8.432 15.791 8.928 15.12 9.534 14.803 C 6.038 14.444 4.369 12.704 4.369 10.342 C 4.369 9.326 4.802 8.342 5.538 7.514 C 5.296 6.691 4.993 5.014 5.631 4.375 C 7.204 4.375 8.155 5.395 8.383 5.671 C 9.204 5.391 10.066 5.249 10.933 5.25 C 11.84 5.25 12.704 5.402 13.49 5.673 C 13.716 5.399 14.668 4.375 16.244 4.375 C 16.885 5.015 16.578 6.699 16.334 7.52 C 17.065 8.347 17.496 9.327 17.496 10.342 C 17.496 12.702 15.83 14.441 12.338 14.802 C 13.299 15.304 14 16.712 14 17.774 L 14 20.166 C 14 20.257 13.98 20.323 13.969 20.401 C 18.061 18.967 21 15.082 21 10.5 C 21 4.701 16.299 0 10.5 0 Z" fill="rgb(27, 27, 80)"></path></svg>