<?xml version="1.0" encoding="utf-8"?>
<!-- Generator: Adobe Illustrator 27.8.1, SVG Export Plug-In . SVG Version: 6.00 Build 0)  -->
<svg version="1.1" id="Layer_1" xmlns="http://www.w3.org/2000/svg" xmlns:xlink="http://www.w3.org/1999/xlink" x="0px" y="0px"
	 width="672.7px" height="135.1px" viewBox="0 0 672.7 135.1" style="enable-background:new 0 0 672.7 135.1;" xml:space="preserve"
	>
<style type="text/css">
	.st0{fill:#FFFFFF;}
	.st1{fill:#FFE9CF;}
	.st2{fill:none;}
	.st3{fill:#FF4A04;}
	.st4{fill:#77B6EA;}
	.st5{fill:#1B1B53;}
	.st6{fill:#FF0000;}
</style>
<g>
	<g>
		<g>
			<g>
				<path class="st0" d="M399.1,92.6l-18.9-21.9v21c0,0.8-0.6,1.4-1.4,1.4h-5.5c-0.8,0-1.4-0.6-1.4-1.4V44.5c0-0.8,0.6-1.4,1.4-1.4
					h5.5c0.8,0,1.4,0.6,1.4,1.4v21.4l19-22.3c0.3-0.3,0.6-0.5,1-0.5h6.6c1.2,0,1.8,1.4,1,2.3L388,68.2l20.1,22.7
					c0.8,0.9,0.1,2.3-1,2.3h-7C399.8,93.1,399.4,92.9,399.1,92.6L399.1,92.6z"/>
				<g>
					<path class="st0" d="M199.8,91.8c-2.7-1.2-4.8-2.8-6.3-5c-1.2-1.8-2-3.8-2.2-6c-0.1-0.8,0.6-1.5,1.4-1.5h6.1
						c0.6,0,1.2,0.4,1.3,1.1c0.3,1.7,1.1,3.1,2.4,4.3c1.5,1.4,3.6,2.1,6.4,2.1s5-0.7,6.6-2.1s2.4-3.1,2.4-5.3c0-1.7-0.5-3-1.5-4.1
						s-2.2-1.9-3.7-2.4c-1.5-0.6-3.5-1.2-6.1-1.9c-3.3-0.9-5.9-1.7-7.9-2.6s-3.8-2.3-5.2-4.1c-1.4-1.9-2.2-4.4-2.2-7.5
						c0-2.9,0.7-5.4,2.2-7.5c1.4-2.2,3.4-3.8,6-5s5.6-1.7,9-1.7c4.8,0,8.8,1.2,11.9,3.6c2.7,2.1,4.3,4.9,4.9,8.3
						c0.1,0.8-0.5,1.6-1.4,1.6h-6.4c-0.6,0-1.2-0.5-1.3-1c-0.3-1.4-1.1-2.6-2.4-3.7c-1.6-1.3-3.7-1.9-6.3-1.9
						c-2.4,0-4.3,0.6-5.8,1.8s-2.2,2.9-2.2,5.2c0,1.5,0.5,2.8,1.4,3.8s2.1,1.8,3.6,2.3s3.4,1.2,5.9,1.9c3.3,0.9,6,1.8,8.1,2.7
						s3.9,2.3,5.3,4.2c1.5,1.9,2.2,4.4,2.2,7.6c0,2.5-0.7,4.9-2.1,7.2c-1.4,2.2-3.4,4.1-6,5.4s-5.7,2.1-9.2,2.1
						C205.4,93.6,202.4,93,199.8,91.8L199.8,91.8z"/>
					<path class="st0" d="M268.1,44.5v3.9c0,0.8-0.6,1.4-1.4,1.4h-11.9v41.9c0,0.8-0.6,1.4-1.4,1.4H248c-0.8,0-1.4-0.6-1.4-1.4V49.8
						h-12c-0.8,0-1.4-0.6-1.4-1.4v-3.9c0-0.8,0.6-1.4,1.4-1.4h32.1C267.5,43.1,268.1,43.7,268.1,44.5L268.1,44.5z"/>
					<path class="st0" d="M349.3,92.4l-11.1-19.3H332v18.6c0,0.8-0.6,1.4-1.4,1.4h-5.5c-0.8,0-1.4-0.6-1.4-1.4V44.5
						c0-0.8,0.6-1.4,1.4-1.4H341c3.8,0,7.1,0.7,9.8,2s4.6,3.1,6,5.4c1.3,2.2,2,4.8,2,7.5c0,3.3-1,6.2-2.8,8.9
						c-1.9,2.7-4.8,4.5-8.7,5.4l11.1,18.6c0.5,0.9-0.1,2.1-1.2,2.1h-6.6C350,93.1,349.6,92.8,349.3,92.4L349.3,92.4z M332,66.5h9.1
						c3.1,0,5.4-0.8,6.9-2.3c1.6-1.5,2.3-3.6,2.3-6.2s-0.8-4.6-2.3-6.1s-3.9-2.2-7-2.2h-9V66.5z"/>
					<path class="st0" d="M458.5,93.1h-6.1c-0.5,0-0.9-0.2-1.1-0.6L427,55.7v36c0,0.8-0.6,1.4-1.4,1.4h-5.5c-0.8,0-1.4-0.6-1.4-1.4
						V44.4c0-0.8,0.6-1.4,1.4-1.4h6.1c0.5,0,0.9,0.2,1.1,0.6l24.3,36.6V44.4c0-0.8,0.6-1.4,1.4-1.4h5.5c0.8,0,1.4,0.6,1.4,1.4v47.3
						C459.9,92.5,459.3,93.1,458.5,93.1L458.5,93.1z"/>
					<path class="st0" d="M480.3,49.7v14.7h15.9c0.8,0,1.4,0.6,1.4,1.4v3.9c0,0.8-0.6,1.4-1.4,1.4h-15.9v15.3h18
						c0.8,0,1.4,0.6,1.4,1.4v3.9c0,0.8-0.6,1.4-1.4,1.4h-24.9c-0.8,0-1.4-0.6-1.4-1.4V44.4c0-0.8,0.6-1.4,1.4-1.4h24.9
						c0.8,0,1.4,0.6,1.4,1.4v3.9c0,0.8-0.6,1.4-1.4,1.4L480.3,49.7L480.3,49.7z"/>
					<path class="st0" d="M543.4,44.5v3.9c0,0.8-0.6,1.4-1.4,1.4h-11.9v41.9c0,0.8-0.6,1.4-1.4,1.4h-5.5c-0.8,0-1.4-0.6-1.4-1.4
						V49.8h-12c-0.8,0-1.4-0.6-1.4-1.4v-3.9c0-0.8,0.6-1.4,1.4-1.4H542C542.8,43.1,543.4,43.7,543.4,44.5L543.4,44.5z"/>
					<path class="st0" d="M551.3,92.1c-1-1-1.5-2.2-1.5-3.7s0.5-2.7,1.5-3.7s2.2-1.5,3.7-1.5s2.7,0.5,3.7,1.5s1.5,2.2,1.5,3.7
						s-0.5,2.7-1.5,3.7s-2.2,1.5-3.7,1.5S552.3,93.1,551.3,92.1z"/>
					<path class="st0" d="M662.6,44.3c3.3,1.8,5.8,4.3,7.5,7.5s2.6,7,2.6,11.3c0,2-0.2,4-0.5,5.8c-0.8,4.8-2.5,9.1-5.2,12.8
						c-2.6,3.7-6,6.7-10,8.7s-8.4,3.1-13.2,3.1c-4.5,0-8.4-0.9-11.7-2.7c-3.3-1.8-5.8-4.3-7.5-7.5c-1.8-3.2-2.6-6.9-2.6-11.2
						c0-1.8,0.2-3.8,0.6-6c0.8-4.8,2.5-9,5.2-12.8c2.7-3.7,6-6.6,10-8.7c4-2.1,8.4-3.1,13.2-3.1C655.4,41.7,659.3,42.5,662.6,44.3
						L662.6,44.3z M641.5,51.5c-2.8,1.5-5.1,3.5-6.9,6.3s-3.1,5.9-3.8,9.5c-0.2,1.2-0.4,2.7-0.4,4.2c0,4.5,1.3,8.1,3.8,10.6
						c2.5,2.6,6,3.8,10.4,3.8c3.2,0,6.1-0.7,8.8-2.2s5-3.6,6.9-6.3s3.2-5.9,3.8-9.5c0.2-1.2,0.4-2.7,0.4-4.3c0-4.5-1.3-8-3.8-10.5
						c-2.5-2.6-6-3.8-10.4-3.8C647.2,49.3,644.2,50,641.5,51.5L641.5,51.5z"/>
				</g>
			</g>
			<path class="st0" d="M614,76c1.1-2.6,1.9-5.6,2-8.9c0.2-0.8-0.5-1.6-1.3-1.6h-22.8c-0.7,0-1.2,0.5-1.3,1.1l-0.6,3.3
				c-0.2,0.8,0.5,1.6,1.3,1.6h17c-1.4,4.6-3.9,8.2-7.3,10.8c-3.5,2.6-7.3,3.9-11.5,3.9c-4.5,0-8.1-1.2-10.7-3.7s-3.9-5.9-3.9-10.4
				c0-1.4,0.1-2.9,0.4-4.5c0.6-3.6,1.9-6.8,3.8-9.6c2.3-3.3,5.2-5.7,8.7-7.2c2.4-1,5.1-1.5,7.8-1.4c3.2,0.1,5.9,0.9,8,2.4
				c2,1.4,3.3,3.3,4,5.5c0.2,0.6,0.7,1,1.3,1h6.1c0.9,0,1.5-0.8,1.3-1.7c-0.8-4.3-2.7-7.7-5.8-10.4c-3.5-3-8.2-4.5-14.1-4.5
				c-4.9,0-9.5,1.1-13.6,3.2s-7.6,5.2-10.4,9s-4.6,8.3-5.4,13.2c-0.3,1.9-0.5,3.8-0.5,5.7c0,4.1,0.8,7.7,2.5,10.8s4.1,5.5,7.2,7.2
				c3.1,1.7,6.9,2.6,11.2,2.6c4.6,0,8.7-0.9,12.5-2.6c2.6-1.2,4.9-2.8,7-4.6v0.1c0,0,0.1-0.1,0.4-0.3c0.1-0.1,0.2-0.2,0.3-0.3
				c0.2-0.2,0.5-0.5,0.8-0.9s0.7-0.7,1-1.1c1.7-2,3-4.1,4.1-6.5c0.1-0.3,0.3-0.6,0.4-0.8C613.8,76.4,613.9,76.2,614,76L614,76z"/>
		</g>
		<path class="st0" d="M315.3,91.3L298.4,44c-0.2-0.5-0.7-0.9-1.3-0.9h-7.6c-0.6,0-1.1,0.4-1.3,0.9l-16.9,47.3
			c-0.3,0.9,0.3,1.8,1.3,1.8h5.6c0.6,0,1.1-0.4,1.3-0.9l1.7-4.9l3.9-11.1l0,0l5.1-14.4l0,0l0,0l2.4-6.8c0.2-0.7,1.1-0.7,1.4,0l2,5.6
			l0,0l0,0l5.5,15.7l0,0l3.5,9.9l0,0l2,6c0.2,0.6,0.7,0.9,1.3,0.9h5.7C315,93.1,315.7,92.1,315.3,91.3L315.3,91.3z"/>
	</g>
	<g>
		<g>
			<g>
				<path class="st1" d="M110.7,37v61.4c0,4.2,0,8.4,0,12.7c0,0.7,0,1.4,0,2.1v1.3l0,0c0,5.7,0,11.4,0,17c0,2.6,0.7,3.5,3.8,3.3
					c3.1-0.1,6.1-0.2,9-1.4c2.5-1.1,4.5-2.4,6.2-4.1c0.6-0.6,2.1-2.1,3.4-4.5c0.6-1.1,1.8-3.5,2.6-9.2c0.9-6.7,0-8.4,1.5-13.2
					c0.6-1.8,1.3-3.6,2.8-5.2c1.1-1.1,2.4-2.1,4-2.8c2.8-1.2,5.8-2.1,8.8-2.8c1.5-0.4,1.8-1.1,1.8-2.2c0.1-2.3-1.5-4.1-2.3-6.1
					c-1.7-4.4-3.9-8.6-5.8-12.9c-2.4-5.5-4.7-11-7.1-16.5c-2.5-5.6-5.2-11.1-7.5-16.7c-0.7-1.7-1.6-3.4-2.3-5.1
					c-0.9-2.5-2.2-4.8-3.7-7.1c-2.5-3.9-5.6-7.5-9.2-10.7c-2.8-2.5-5.8-4.7-9.2-6.6C102,4.7,96,2.5,89.6,1.2c-3.9-0.8-7.9-1-11.8-1
					s-7.9,0.2-11.8,1c-6.4,1.3-12.4,3.4-17.9,6.5c-3.3,1.8-6.3,4.1-9.2,6.6c-3.7,3.2-6.7,6.8-9.2,10.7c-1.5,2.2-2.8,4.6-3.7,7.1
					c-0.6,1.8-1.5,3.4-2.3,5.1c-2.4,5.6-5.1,11.1-7.5,16.7c-2.4,5.5-4.7,11-7.1,16.5C7.2,74.7,5,78.9,3.3,83.3
					c-0.8,2-2.3,3.8-2.3,6.1c0.1,1.1,0.3,1.8,1.8,2.2c3,0.8,6,1.6,8.8,2.8c1.6,0.7,2.9,1.7,4,2.8c1.5,1.6,2.3,3.4,2.8,5.2
					c1.5,4.9,0.6,6.5,1.5,13.2c0.8,5.7,1.9,8.1,2.5,9.2c1.3,2.4,2.8,3.9,3.4,4.5c1.7,1.6,3.7,3,6.2,4.1c2.9,1.3,5.9,1.3,9,1.4
					c3.1,0.1,3.8-0.7,3.8-3.3c0-5.7,0-11.4,0-17.1l0,0v-1.3c0-0.7,0-1.4,0-2.1c0-4.2,0-8.4,0-12.7V36.9"/>
				<g>
					<path class="st2" d="M44.6,37.4h66.1v2c0.1,0.3,0.1,0.7,0,1.2v0.1v0.9c0,0,0,0,0,0.1c0.1,0.4,0.1,0.7,0,0.9v6.2h26.4
						c-1.8-3.9-3.6-7.9-5.3-11.8v-0.1H23.5V37c-1.7,4-3.5,7.9-5.3,11.8h26.4v-6.2"/>
					<path class="st2" d="M0.8,89.2c0.1,1.1,0.3,1.8,1.8,2.2c3,0.8,6,1.6,8.8,2.8c1.6,0.7,2.9,1.7,4,2.8c0.3,0.3,0.5,0.6,0.7,0.9
						h28.5V85.7H1.8C1.2,86.8,0.7,87.9,0.8,89.2L0.8,89.2z"/>
					<path class="st2" d="M38.7,14.2c-3.6,3.2-6.6,6.7-9.1,10.5h96.2c-2.5-3.8-5.5-7.3-9.1-10.5c-0.7-0.6-1.4-1.2-2.1-1.8H40.8
						C40.1,13,39.4,13.6,38.7,14.2L38.7,14.2z"/>
					<path class="st2" d="M8.9,70.2c-0.5,1.1-1,2.1-1.5,3.2h37.2V61.2H12.7C11.5,64.2,10.2,67.2,8.9,70.2z"/>
					<path class="st2" d="M19.7,115.5c0.5,3.3,1,5.5,1.6,7h23.4c0-2.7,0-5.4,0-8.2l0,0V113c0-0.7,0-1.4,0-2.1c0-0.2,0-0.5,0-0.8
						H19.2C19.3,111.6,19.4,113.3,19.7,115.5L19.7,115.5z"/>
					<path class="st2" d="M110.7,111c0,0.7,0,1.4,0,2.1v1.3l0,0c0,2.7,0,5.4,0,8.2h23.4c0.5-1.5,1.1-3.7,1.6-7
						c0.3-2.2,0.4-3.9,0.5-5.3h-25.4C110.7,110.5,110.7,110.7,110.7,111L110.7,111z"/>
					<path class="st2" d="M110.7,73.4h37.2c-0.5-1.1-1-2.1-1.5-3.2c-1.3-3-2.6-6-3.9-9.1h-31.8V73.4z"/>
					<path class="st2" d="M110.7,98h28.5c0.2-0.3,0.5-0.6,0.7-0.9c1.1-1.1,2.4-2.1,4-2.8c2.8-1.2,5.8-2.1,8.8-2.8
						c1.5-0.4,1.8-1.1,1.8-2.2c0.1-1.3-0.4-2.4-1-3.5h-42.8V98L110.7,98z"/>
					<path class="st3" d="M89.5,1.2c-3.9-0.8-7.9-1-11.8-1s-7.9,0.2-11.8,1C59.5,2.5,53.5,4.7,48,7.7c-2.5,1.4-4.8,3-7.1,4.8h73.6
						c-2.2-1.8-4.6-3.4-7.1-4.8C101.9,4.6,95.9,2.4,89.5,1.2L89.5,1.2z"/>
					<path class="st3" d="M29.4,24.9c-1.5,2.2-2.8,4.6-3.7,7.1c-0.6,1.7-1.5,3.3-2.2,5h108.2c-0.7-1.7-1.6-3.3-2.2-5
						c-0.9-2.5-2.2-4.8-3.7-7.1c0-0.1-0.1-0.1-0.1-0.2H29.5C29.5,24.8,29.5,24.8,29.4,24.9z"/>
					<path class="st3" d="M15.9,53.8c-1.1,2.5-2.1,4.9-3.2,7.4h31.8V48.9H18.2C17.4,50.5,16.7,52.2,15.9,53.8z"/>
					<path class="st3" d="M110.7,61.2h31.8c-1.1-2.5-2.1-4.9-3.2-7.4c-0.7-1.6-1.5-3.3-2.2-4.9h-26.4
						C110.7,48.9,110.7,61.2,110.7,61.2z"/>
					<path class="st3" d="M110.7,85.7h42.8c-0.4-0.8-0.9-1.7-1.3-2.5c-1.3-3.3-2.9-6.5-4.4-9.7h-37.2L110.7,85.7L110.7,85.7z"/>
					<path class="st3" d="M3,83.2c-0.3,0.9-0.8,1.7-1.3,2.5h42.8V73.4H7.4C5.9,76.7,4.3,79.9,3,83.2z"/>
					<path class="st3" d="M18.2,102.3c1,3.3,0.9,5.1,1,7.9h25.4c0-4,0-7.9,0-11.9V98H16.1C17.1,99.3,17.7,100.8,18.2,102.3
						L18.2,102.3z"/>
					<path class="st3" d="M110.7,98.3c0,4,0,7.9,0,11.9h25.4c0.1-2.9,0-4.7,1.1-7.9c0.5-1.5,1-2.9,2.1-4.3h-28.5L110.7,98.3
						L110.7,98.3z"/>
					<path class="st3" d="M110.7,131.4c0,2.6,0.7,3.5,3.8,3.3c3.1-0.1,6.1-0.2,9-1.4c2.5-1.1,4.5-2.4,6.2-4.1
						c0.6-0.6,2.1-2.1,3.4-4.5c0.3-0.5,0.6-1.2,1-2.2h-23.3C110.7,125.4,110.7,128.4,110.7,131.4L110.7,131.4z"/>
					<path class="st3" d="M22.2,124.7c1.3,2.4,2.8,3.9,3.4,4.5c1.7,1.6,3.7,3,6.2,4.1c2.9,1.3,5.9,1.3,9,1.4
						c3.1,0.1,3.8-0.7,3.8-3.3c0-3,0-5.9,0-8.9H21.2C21.6,123.6,21.9,124.3,22.2,124.7L22.2,124.7z"/>
				</g>
				<g>
					<g>
						<path class="st4" d="M38.9,37.3c-5,7.4-7.9,16.3-7.9,25.9c0,25.8,20.9,46.6,46.6,46.6s46.6-20.9,46.6-46.6
							c0-9.6-2.9-18.5-7.9-25.9C116.3,37.3,38.9,37.3,38.9,37.3z"/>
						<path class="st5" d="M77.6,110.2c-25.9,0-47-21.1-47-47c0-9.3,2.7-18.4,7.9-26.1l0.1-0.2h77.9l0.1,0.2
							c5.2,7.7,7.9,16.8,7.9,26.1C124.6,89.1,103.6,110.2,77.6,110.2z M39.1,37.6c-5,7.6-7.7,16.4-7.7,25.6
							c0,25.5,20.8,46.3,46.3,46.3S124,88.7,124,63.2c0-9.2-2.7-18-7.7-25.6H39.1z"/>
					</g>
					<g>
						<circle class="st0" cx="56.5" cy="52.1" r="18.8"/>
						<path class="st5" d="M56.5,71.3c-10.6,0-19.2-8.6-19.2-19.2s8.6-19.2,19.2-19.2s19.2,8.6,19.2,19.2S67.1,71.3,56.5,71.3z
							 M56.5,33.6C46.3,33.6,38,41.9,38,52.1s8.3,18.5,18.5,18.5S75,62.3,75,52.1S66.7,33.6,56.5,33.6z"/>
					</g>
					<g>
						<circle class="st0" cx="99.1" cy="52.2" r="18.7"/>
						<path class="st5" d="M99.1,71.3C88.6,71.3,80,62.7,80,52.2s8.5-19.1,19.1-19.1s19.1,8.6,19.1,19.1S109.6,71.3,99.1,71.3z
							 M99.1,33.9c-10.1,0-18.4,8.2-18.4,18.4s8.2,18.4,18.4,18.4s18.4-8.2,18.4-18.4S109.2,33.9,99.1,33.9z"/>
					</g>
					<g>
						<g>
							<circle class="st5" cx="56.5" cy="56.1" r="5.8"/>
							<path class="st5" d="M56.5,62.4c-3.5,0-6.3-2.8-6.3-6.3s2.8-6.3,6.3-6.3s6.3,2.8,6.3,6.3S60,62.4,56.5,62.4z M56.5,50.9
								c-2.8,0-5.2,2.3-5.2,5.2s2.3,5.2,5.2,5.2s5.2-2.3,5.2-5.2S59.3,50.9,56.5,50.9z"/>
						</g>
						<circle class="st0" cx="53.5" cy="59.1" r="1.4"/>
					</g>
					<g>
						<g>
							<circle class="st5" cx="99.1" cy="56" r="5.7"/>
							<path class="st5" d="M99.1,61.8c-3.2,0-5.9-2.6-5.9-5.9c0-3.2,2.6-5.9,5.9-5.9c3.2,0,5.9,2.6,5.9,5.9
								C104.9,59.2,102.3,61.8,99.1,61.8z M99.1,50.4c-3.1,0-5.6,2.5-5.6,5.6s2.5,5.6,5.6,5.6s5.6-2.5,5.6-5.6
								C104.6,52.9,102.1,50.4,99.1,50.4z"/>
						</g>
						<circle class="st0" cx="96.3" cy="59.1" r="1.4"/>
					</g>
					<g>
						<g>
							<path class="st0" d="M74.3,77.8L74.3,77.8c1.9,0,3.4,1.5,3.4,3.4v6.9c0,1.9-1.5,3.4-3.4,3.4l0,0c-1.9,0-3.4-1.5-3.4-3.4v-6.9
								C70.8,79.3,72.4,77.8,74.3,77.8z"/>
							<path class="st5" d="M74.3,91.9c-2.1,0-3.8-1.7-3.8-3.8v-6.9c0-2.1,1.7-3.8,3.8-3.8c2.1,0,3.8,1.7,3.8,3.8v6.9
								C78.1,90.2,76.4,91.9,74.3,91.9z M74.3,78.1c-1.7,0-3.1,1.4-3.1,3.1v6.9c0,1.7,1.4,3.1,3.1,3.1s3.1-1.4,3.1-3.1v-6.9
								C77.4,79.5,76,78.1,74.3,78.1z"/>
						</g>
						<g>
							<path class="st0" d="M81.2,77.8L81.2,77.8c1.9,0,3.4,1.5,3.4,3.4v6.9c0,1.9-1.5,3.4-3.4,3.4l0,0c-1.9,0-3.4-1.5-3.4-3.4v-6.9
								C77.7,79.3,79.3,77.8,81.2,77.8z"/>
							<path class="st5" d="M81.2,91.9c-2.1,0-3.8-1.7-3.8-3.8v-6.9c0-2.1,1.7-3.8,3.8-3.8s3.8,1.7,3.8,3.8v6.9
								C85,90.2,83.3,91.9,81.2,91.9z M81.2,78.1c-1.7,0-3.1,1.4-3.1,3.1v6.9c0,1.7,1.4,3.1,3.1,3.1s3.1-1.4,3.1-3.1v-6.9
								C84.2,79.5,82.9,78.1,81.2,78.1z"/>
						</g>
					</g>
					<path class="st5" d="M90,78.7c0,0.1,0,0.2,0,0.3c-0.2,1.5-0.9,2.7-2,3.3c-1.4,0.7-3.1,0.4-4.8-0.7c0,0,0,0-0.1,0
						c-0.2-0.1-0.3-0.3-0.5-0.4c-1.4-0.9-3.1-1.5-4.9-1.5c-1.7,0-3.3,0.5-4.7,1.3l0,0c-0.3,0.2-0.7,0.4-1,0.7
						c-1.6,1-3.2,1.3-4.6,0.6c-1.4-0.8-2.2-2.5-2.1-4.7c0.8-3.6,5.8-6.4,11.9-6.5c0.1,0,0.2,0,0.3,0c0.2,0,0.3,0,0.5,0
						C84.7,71.2,90,74.6,90,78.7L90,78.7z"/>
					<g>
						<ellipse class="st6" cx="77.7" cy="72.5" rx="6.5" ry="4.3"/>
						<path class="st5" d="M77.6,77.2c-3.8,0-6.9-2.1-6.9-4.7s3.1-4.7,6.9-4.7s6.9,2.2,6.9,4.7C84.5,75.1,81.5,77.2,77.6,77.2z
							 M77.6,68.6c-3.4,0-6.2,1.8-6.2,3.9c0,2.2,2.8,3.9,6.2,3.9s6.2-1.8,6.2-3.9C83.8,70.3,81.1,68.6,77.6,68.6z"/>
					</g>
				</g>
			</g>
			<path class="st5" d="M76.3,15.9l0.9-3.1c0.1-0.4,0.7-0.4,0.9,0l1,3.1c0.2,0.6,0.7,1.1,1.3,1.3l3.1,1c0.4,0.1,0.4,0.7,0,0.9
				l-3,0.9c-0.6,0.2-1.1,0.7-1.3,1.3l-0.9,3.1c-0.1,0.4-0.7,0.4-0.9,0l-1-3.1c-0.2-0.6-0.7-1.1-1.3-1.3L72,19
				c-0.4-0.1-0.4-0.7,0-0.9l3.1-1C75.6,17,76.1,16.5,76.3,15.9L76.3,15.9z"/>
		</g>
		<path class="st5" d="M153.6,85c-0.3-0.6-0.7-1.2-0.9-1.8c-1.1-2.8-2.4-5.5-3.6-8.1c-0.7-1.6-1.5-3.3-2.2-4.9
			c-1.1-2.7-2.3-5.4-3.4-8c-1.1-2.8-2.4-5.7-3.6-8.5c-1-2.2-2.1-4.5-3.1-6.7c-1.5-3.2-3.1-6.6-4.5-10c-0.3-0.7-0.7-1.4-1-2.1
			c-0.4-1-0.9-2-1.3-3c-0.8-2.2-2-4.6-3.7-7.1c-2.7-4.1-5.7-7.6-9.3-10.7c-3.3-2.9-6.3-4.9-9.3-6.6c-5.6-3.1-11.6-5.3-18-6.5
			c-3.6-0.7-7.5-1-11.9-1c-0.1,0-0.2,0-0.3,0c-0.1,0-0.2,0-0.3,0c-4.4,0-8.3,0.3-11.9,1c-6.4,1.2-12.4,3.4-18,6.5
			c-3,1.7-6,3.7-9.3,6.6c-3.6,3.1-6.6,6.6-9.3,10.7c-1.7,2.5-2.9,4.9-3.7,7.1c-0.4,1-0.9,2-1.3,3c-0.3,0.7-0.7,1.4-1,2.1
			c-1.4,3.4-3,6.8-4.5,10c-1,2.2-2.1,4.5-3.1,6.7c-1.2,2.8-2.5,5.7-3.6,8.5c-1.1,2.6-2.3,5.3-3.4,8c-0.7,1.6-1.5,3.3-2.2,4.9
			c-1.2,2.6-2.5,5.3-3.6,8.1c-0.2,0.6-0.6,1.2-0.9,1.8c-0.7,1.3-1.5,2.7-1.4,4.3c0.1,1.3,0.4,2.1,2.1,2.5c2.9,0.8,6,1.6,8.7,2.8
			c1.5,0.7,2.8,1.6,3.9,2.7c1.6,1.7,2.2,3.5,2.7,5.1c0.9,2.8,0.9,4.5,1,6.8c0.1,1.7,0.1,3.6,0.5,6.4c0.8,5.5,1.8,8,2.6,9.3
			c1.2,2.2,2.5,3.7,3.4,4.6c1.7,1.7,3.8,3.1,6.3,4.1c2.9,1.2,5.7,1.3,8.7,1.5h0.4c0.6-0.1,0.8,0,1,0c1.4,0,2.2-0.2,2.8-0.8
			s0.8-1.4,0.8-2.9c0-4.6,0-9.1,0-13.7V111V96.3h-0.7v20.9c0,4.7,0,9.4,0,14.1c0,1.3-0.2,2-0.6,2.4c-0.5,0.4-1.3,0.6-2.8,0.6h-0.4
			c-2.9-0.1-5.7-0.2-8.5-1.4c-2.4-1-4.4-2.3-6.1-4c-0.9-0.9-2.2-2.3-3.3-4.4c-0.7-1.3-1.8-3.7-2.5-9.1c-0.4-2.8-0.4-4.7-0.5-6.3
			c-0.1-2.3-0.1-4.1-1-7c-0.5-1.7-1.2-3.6-2.9-5.4c-1.1-1.2-2.5-2.2-4.1-2.9c-2.8-1.2-5.9-2.1-8.9-2.9c-1.3-0.3-1.5-0.8-1.5-1.8
			c-0.1-1.4,0.6-2.7,1.3-4c0.3-0.6,0.7-1.3,0.9-1.9c1.1-2.7,2.3-5.4,3.6-8c0.8-1.6,1.5-3.2,2.2-4.9c1.2-2.7,2.3-5.4,3.4-8
			c1.2-2.8,2.4-5.6,3.6-8.4c1-2.2,2-4.5,3.1-6.7c1.5-3.3,3.1-6.7,4.5-10c0.3-0.7,0.6-1.4,0.9-2.1c0.5-1,0.9-2,1.3-3
			c0.8-2.2,2-4.5,3.6-7c2.6-4.1,5.7-7.5,9.2-10.6c3.3-2.8,6.2-4.9,9.1-6.5c5.5-3,11.5-5.2,17.8-6.4c3.6-0.7,7.4-1,11.8-1h0.1h0.1
			c4.4,0,8.2,0.3,11.8,1C95.7,2.8,101.7,5,107.2,8c2.9,1.6,5.8,3.7,9.1,6.5c3.5,3.1,6.6,6.5,9.2,10.6c1.6,2.5,2.8,4.8,3.6,7
			c0.4,1,0.8,2,1.3,3c0.3,0.7,0.6,1.4,0.9,2.1c1.4,3.3,3,6.7,4.5,10c1.1,2.2,2.1,4.5,3.1,6.7c1.2,2.8,2.4,5.6,3.6,8.4
			c1.1,2.6,2.2,5.3,3.4,8c0.7,1.7,1.4,3.3,2.2,4.9c1.3,2.6,2.5,5.3,3.6,8c0.2,0.6,0.6,1.3,0.9,1.9c0.7,1.3,1.4,2.6,1.3,4
			c0,1-0.2,1.5-1.5,1.8c-3,0.8-6.1,1.7-8.9,2.9c-1.6,0.7-3,1.7-4.1,2.9c-1.7,1.8-2.4,3.7-2.9,5.4c-0.9,2.9-0.9,4.7-1,7
			c-0.1,1.6-0.1,3.5-0.5,6.3c-0.7,5.4-1.8,7.8-2.5,9.1c-1.1,2.1-2.4,3.5-3.3,4.4c-1.7,1.7-3.7,3-6.1,4c-2.8,1.2-5.6,1.3-8.5,1.4
			h-0.4c-1.5,0-2.3-0.2-2.8-0.6c-0.4-0.4-0.6-1.1-0.6-2.4c0-4.7,0-9.4,0-14.1V96.3h-0.7V111v6.7c0,4.6,0,9.1,0,13.7
			c0,1.5,0.2,2.3,0.8,2.9c0.6,0.6,1.4,0.8,2.8,0.8c0.2,0,0.4-0.1,1,0h0.4c3-0.2,5.8-0.3,8.7-1.5c2.5-1,4.6-2.4,6.3-4.1
			c0.9-0.9,2.2-2.4,3.4-4.6c0.8-1.3,1.8-3.8,2.6-9.3c0.4-2.8,0.4-4.7,0.5-6.4c0.1-2.3,0.1-4,1-6.8c0.5-1.6,1.1-3.4,2.7-5.1
			c1.1-1.1,2.4-2,3.9-2.7c2.7-1.2,5.8-2,8.7-2.8c1.7-0.4,2-1.2,2.1-2.5C155.1,87.7,154.3,86.3,153.6,85z"/>
	</g>
</g>
</svg>
