<svg xmlns="http://www.w3.org/2000/svg" width="21" height="21" fill="none" overflow="visible"><path d="M 10.5 0 C 16.299 0 21 4.701 21 10.5 C 21 16.299 16.299 21 10.5 21 C 4.701 21 0 16.299 0 10.5 C 0 4.701 4.701 0 10.5 0 Z M 14.122 14.78 C 14.315 14.187 15.22 8.282 15.332 7.118 C 15.366 6.766 15.254 6.531 15.036 6.427 C 14.772 6.3 14.381 6.363 13.928 6.527 C 13.306 6.751 5.357 10.126 4.898 10.321 C 4.463 10.506 4.051 10.708 4.051 11 C 4.051 11.206 4.173 11.321 4.509 11.441 C 4.858 11.566 5.739 11.833 6.259 11.976 C 6.76 12.115 7.33 11.995 7.649 11.796 C 7.988 11.586 11.897 8.97 12.178 8.741 C 12.458 8.511 12.682 8.805 12.453 9.035 C 12.224 9.264 9.54 11.868 9.187 12.229 C 8.757 12.667 9.062 13.12 9.35 13.302 C 9.679 13.509 12.046 15.097 12.403 15.352 C 12.759 15.607 13.121 15.722 13.452 15.722 C 13.783 15.722 13.957 15.286 14.122 14.78 Z" fill="rgb(27, 27, 80)"></path></svg>